<?xml version="1.0" standalone="no"?>
<!DOCTYPE svg PUBLIC "-//W3C//DTD SVG 20010904//EN"
 "http://www.w3.org/TR/2001/REC-SVG-20010904/DTD/svg10.dtd">
<svg version="1.0" xmlns="http://www.w3.org/2000/svg"
 width="100.000000pt" height="100.000000pt" viewBox="0 0 100.000000 100.000000"
 preserveAspectRatio="xMidYMid meet">
<metadata>
Created by potrace 1.11, written by Peter Selinger 2001-2013
</metadata>
<g transform="translate(0.000000,100.000000) scale(0.100000,-0.100000)"
fill="#000000" stroke="none">
<path d="M765 984 c-282 -45 -445 -191 -446 -398 -1 -88 -14 -103 -94 -101
-71 1 -91 -5 -83 -27 5 -11 39 -14 176 -14 94 1 174 5 179 9 17 17 -27 33 -87
32 -86 -2 -95 18 -14 30 275 41 512 205 577 399 29 86 28 87 -60 84 -43 -1
-109 -8 -148 -14z m175 -38 c0 -31 -64 -138 -106 -176 l-46 -43 -89 6 c-49 3
-91 2 -93 -2 -11 -18 15 -33 67 -38 31 -3 54 -10 51 -15 -15 -24 -189 -93
-292 -116 l-43 -10 17 26 c76 115 290 271 432 313 30 8 42 18 42 31 0 22 -14
23 -70 3 -149 -53 -322 -176 -419 -299 -30 -38 -31 -38 -31 -13 0 15 9 52 21
82 50 134 207 229 419 254 104 12 140 11 140 -3z"/>
<path d="M77 415 c-17 -5 -42 -25 -54 -44 -21 -30 -23 -46 -23 -148 0 -131 14
-174 62 -199 45 -23 478 -23 513 0 52 34 60 59 59 197 0 122 -1 130 -25 155
-13 14 -33 31 -44 37 -26 14 -445 16 -488 2z m471 -39 c36 -12 49 -59 47 -166
-2 -111 -7 -132 -38 -149 -19 -10 -267 -17 -440 -12 -15 1 -39 12 -52 26 -24
23 -25 30 -25 138 0 100 3 118 20 140 11 14 33 27 48 29 55 6 418 1 440 -6z"/>
</g>
</svg>
